<svg xmlns="http://www.w3.org/2000/svg" viewBox="0 0 715.04 567.24"><defs><style>.cls-1{fill:#fff;}.cls-2{fill:#ec2027;}</style></defs><title>Asset 1alepa</title><g id="Layer_2" data-name="Layer 2"><g id="Layer_1-2" data-name="Layer 1"><path class="cls-1" d="M458.09,0H270.34C128.43,0,13.39,115,13.39,256.95v42a256.07,256.07,0,0,0,70.71,177A151.21,151.21,0,0,1,0,545.62a151.19,151.19,0,0,0,170.33-10,256.14,256.14,0,0,0,100,20.19H458.09C600,555.85,715,440.81,715,298.9v-42C715,115,600,0,458.09,0Z"/><path class="cls-2" d="M459,367.25a227.73,227.73,0,0,0,42.45-72.45c9.08-25.07,13.36-50.9,11.85-77.62a6.06,6.06,0,0,0-2-4.46c-7.61-7.1-16.92-10.32-26.94-12.17A13.86,13.86,0,0,0,473,203c-6.45,4.72-12.93,9.39-19.4,14.08L451,218.84c1.46-5.06,2.64-9.44,4-13.77a2.59,2.59,0,0,0-1-3.24,57.39,57.39,0,0,0-24.62-11.74c-1.74-.39-2.47-.08-3,1.69a587.35,587.35,0,0,0-17.58,68.66c-3.56,18.38-6.76,36.83-9.75,55.32-2.05,12.67-3.58,25.42-5.13,38.17-1.46,12-2.63,24-3.93,36.08-.71,6.58-.74,6.64,5.24,9.66,7,3.56,14.39,6.16,22.41,6.38,2,.05,2.86-.41,3-2.67.33-6.86.73-13.73,1.51-20.56,1.71-15.13,3.42-30.27,5.6-45.34,2.33-16.09,5.18-32.11,7.87-48.16,1-5.85,1.95-11.57,5.59-16.74,8.41-11.94,16.87-23.79,28-33.43,3.13-2.71,6.56-5.06,9.86-7.58l.77.64c-2.17,45.23-22.38,82.29-52.46,114.95.82,1,1.59,2,2.42,3,7.06,8.14,16,13.58,25.71,17.9A2.54,2.54,0,0,0,459,367.25Z"/><path class="cls-2" d="M154.5,374.29a9.89,9.89,0,0,0,9-.4c5-2.87,10.06-5.84,14.8-9.18,4.06-2.86,7.73-6.28,11.87-9.7-.4,3.26-.66,6.21-1.16,9.11-.32,1.84-.08,2.91,2,3.41,2.53.62,4.94,1.7,7.46,2.37,6.38,1.71,12.79,3.31,19.33,5,.33-1.14.55-1.69.65-2.25,2.84-17.22,5.86-34.41,8.43-51.67C228.52,310,229.56,299,230.73,288c1.22-11.44,2.33-22.88,3.4-34.33.89-9.59,1.55-19.21,2.52-28.8.73-7.22.53-7.87-6-11.08l-.41-.18c-8.56-3.92-17.68-5.31-27-5.76a4.76,4.76,0,0,1-3.75-1.87c-2.7-3.09-5.51-6.1-8.49-8.92-2.73-2.59-2.87-2.48-6-.58-1.6,1-3.18,2-4.69,3.05-18.21,13.16-30.14,30.8-37.08,52-1.94,5.94-1.94,6,3.75,8.76a61.4,61.4,0,0,0,18,6.06c1.88.28,3,.11,3.76-2.13a151.22,151.22,0,0,1,6.77-17c4.18-8.57,9.87-16.07,18.2-21.11a88,88,0,0,1,8.77-4.1c.25,1,.38,1.31.43,1.66,1.69,11.71,1,23.39-.26,35.09a3.12,3.12,0,0,1-2.52,3c-15,5.26-29.18,12.24-41.83,22-19.36,15-33,33.84-40.06,57.47-1.33,4.46-.56,7.54,2.51,10.81C130.19,362.26,141.79,369.07,154.5,374.29Zm43.92-77.13c-.37,3.24-.72,6.4-1.1,9.56-.55,4.52-1.17,9-1.68,13.55a7.35,7.35,0,0,1-2.2,4.7c-9.08,9-19.05,16.57-31.49,20.24-3.59,1.06-7.38,1.46-11.21,2.19C151.61,329.08,178.81,300.6,198.41,297.16Z"/><path class="cls-2" d="M553.64,257.33c2.54-6.6,5-13.28,8.29-19.51,4.54-8.59,10.88-15.73,19.9-20a56,56,0,0,1,5.47-1.94c.23.86.39,1.27.45,1.7,1.59,11.26.86,22.5-.17,33.76-.26,2.8-1.5,3.7-3.84,4.5a141,141,0,0,0-39.88,20.93c-19.47,14.79-33.47,33.5-40.47,57.13-2.13,7.2-2.13,7.26,3.09,12.73,9,9.43,20,15.7,31.82,20.84a12.14,12.14,0,0,0,10.53-.16,81.59,81.59,0,0,0,17.55-11.53c2.8-2.29,5.52-4.68,8.64-7.33-.43,3.73-.77,7-1.2,10.23a1.64,1.64,0,0,0,1.38,2.1c6.44,1.88,12.83,3.91,19.29,5.72,2.69.75,5.49,1.08,8.56,1.66,1.36-7.11,2.84-13.81,3.88-20.58,2-13.27,4-26.57,5.68-39.89,1.46-11.4,2.6-22.85,3.79-34.28q1.57-15.15,2.93-30.33,1.34-15,2.42-29.93a3.39,3.39,0,0,0-1.31-2.7,88.43,88.43,0,0,0-11.85-5.67c-6.58-2.32-13.51-3.09-20.47-3.37a5.11,5.11,0,0,1-3.93-2c-2.91-3.3-6.11-6.33-9.16-9.51-1.44-1.51-2.79-1.41-4.51-.33C547.39,204,533.59,225,526.26,251c7.61,4,15.12,7.74,23.65,8.9C552.18,260.2,552.87,259.35,553.64,257.33Zm29.55,34.42q-1.48,11.78-3,23.55a3.67,3.67,0,0,1-.82,2c-9.47,9.79-20.06,17.92-33.42,21.69-3.34.94-6.84,1.28-10.59,2,3.76-21.16,29-47.53,47.7-50.17A3.66,3.66,0,0,1,583.2,291.75Z"/><path class="cls-2" d="M366.74,317.48c-1.87-.77-2.81-.48-4,1.17-6,8.33-12.79,15.8-21.82,20.94A31.65,31.65,0,0,1,327,344.05c-1.15.06-2.29.18-2.24-1.59.21-8.58.29-17.17.59-25.75a55.6,55.6,0,0,1,1.13-7.15c3.58,2.82,7,5.5,10.44,8.24a2,2,0,0,0,2.78,0c4-2.76,8.14-5.3,12-8.18,19-14,34-31.29,43.23-53.27a91.13,91.13,0,0,0,7.35-31.66,6.2,6.2,0,0,0-1.16-3.64c-4-5.38-9.24-8.94-15.94-9.84a55.63,55.63,0,0,0-9.4-.17,4.51,4.51,0,0,1-4.11-2c-5.09-6.35-10.94-11.84-18.3-15.55-1.4-.7-2.34-.74-3.41.62-2.31,2.93-4.85,5.68-7.21,8.58-19.19,23.6-33.9,49.63-42.33,79-5.37,18.72-8.16,37.79-6.46,57.31a14.15,14.15,0,0,0,2,6.23c9,14,21.87,22.58,37.93,26.49a5.39,5.39,0,0,0,3.24-.22,167.22,167.22,0,0,0,15.35-7.23,85.45,85.45,0,0,0,30-29,3.2,3.2,0,0,0,0-3.82A31.74,31.74,0,0,0,366.74,317.48ZM338.3,264.06c5.47-13.78,12.79-26.51,23.59-36.9a39,39,0,0,1,8.12-5.87c3.44-1.9,6.06-.65,7.29,3.11s.73,7.39-.21,11c-2.44,9.52-7.45,17.7-13.51,25.28a110.71,110.71,0,0,1-31.45,26.64c-.31.18-.65.33-1,.5l-.85-.4C332.95,279.65,335.26,271.71,338.3,264.06Z"/><path class="cls-2" d="M249.42,367.23c6.81,3.5,13.9,6.22,21.71,6.39,3,.06,3-.08,3.28-3.06,1.65-20.17,2.9-40.38,5.1-60.49s5.05-40.28,8.21-60.33a503,503,0,0,1,15.68-69.57c.41-1.33,0-1.83-1-2.43A93.46,93.46,0,0,0,275.54,168c-1.42-.29-2.06.06-2.48,1.6-6.67,24.48-12.37,49.18-16.78,74.16q-3.95,22.37-7,44.88c-1.57,11.31-2.69,22.69-3.73,34.06-1,10.49-1.52,21-2.26,31.52h.16c0,.82-.09,1.64-.12,2.46C243.06,363.84,243,363.94,249.42,367.23Z"/><path class="cls-2" d="M371.79,382q-52.46,1.12-104.92,2.28c-8.89.2-17.78.58-26.67,1q-23,1-45.91,2.11c-11.94.58-23.88,1.2-35.82,1.93-12.3.76-24.61,1.58-36.89,2.55-9.6.76-19.19,1.73-28.76,2.76a4.47,4.47,0,0,0-3,1.89c-1.81,3.22-3.29,6.62-4.9,9.95l.58.59q145.85-9.74,292.17-12.34L379.24,382C376.54,382,374.16,381.91,371.79,382Z"/><path class="cls-2" d="M625.19,394.7a2.94,2.94,0,0,1-2.52-2.08,5,5,0,0,0-5-3.66c-8.2-.4-16.38-1.25-24.58-1.75-15-.93-30-1.86-45-2.56q-20.82-1-41.67-1.48c-23.83-.53-47.67-.86-71.5-1.27a13.11,13.11,0,0,0-1.67.2l-.6,11.88c70.45-.24,140.65.85,210.82,4.59C637.42,397.26,631.32,395.93,625.19,394.7Z"/></g></g></svg>