<svg xmlns="http://www.w3.org/2000/svg" viewBox="0 0 136.25 115.82"><defs><style>.cls-1{fill:#fff;}</style></defs><title>Asset 26lindstrom</title><g id="Layer_2" data-name="Layer 2"><g id="Layer_1-2" data-name="Layer 1"><circle class="cls-1" cx="35.75" cy="56.48" r="17.87"/><path class="cls-1" d="M53.62,80.07H17.87A17.87,17.87,0,0,0,0,97.94v17.87H71.49V97.94A17.87,17.87,0,0,0,53.62,80.07Z"/><path class="cls-1" d="M109.44,0H93.78A26.81,26.81,0,0,0,67,26.81V56.48c4.54,0,8.68-2.81,11.83-7.43a26.68,26.68,0,0,0,15,4.57h15.66a26.81,26.81,0,0,0,0-53.62ZM82.7,19.66h36.46V23H82.7ZM108.44,34H82.7v-3.3h25.74Zm17.87-5.5H82.7v-3.3h43.61Z"/></g></g></svg>