<svg xmlns="http://www.w3.org/2000/svg" xmlns:xlink="http://www.w3.org/1999/xlink" viewBox="0 0 449.8 91.24"><defs><style>.cls-1{fill:none;}.cls-2{clip-path:url(#clip-path);}.cls-3{fill:#fff;}</style><clipPath id="clip-path" transform="translate(-38.69 -140.77)"><rect class="cls-1" width="527.18" height="372.79"/></clipPath></defs><title>Asset 41lindstrom</title><g id="Layer_2" data-name="Layer 2"><g id="Layer_1-2" data-name="Layer 1"><g class="cls-2"><g class="cls-2"><path class="cls-3" d="M152.06,213.29h34.21V202.9H165.15V155.6H152.06Zm50.37-49.88A5.4,5.4,0,0,0,197,158a5.46,5.46,0,0,0-5.5,5.43,5.52,5.52,0,0,0,5.5,5.5,5.46,5.46,0,0,0,5.44-5.5m-11.59,49.88H203v-39H190.84Zm43.35,0h12.16V187.44c0-9-5-13.94-12.42-13.94-4.56,0-8.11,2-11,6.25h-.17v-5.49H210.62v39h12.16V189.95c0-5.37,2.53-7.69,5.7-7.68s5.71,2.31,5.7,7.68ZM276.8,196.8c0,5.59-2.85,8.15-6.5,8.13-4.06,0-6.42-4.06-6.42-11.07s2.45-11,6.76-11.06c3.95,0,6.25,3.42,6.17,8Zm0,16.49H289V155.6H276.8v22.21c-3.8-3.21-6.5-4.31-10.22-4.31-9,0-15.37,8.36-15.37,20.27,0,11.66,6.42,20.27,15,20.27,3.8,0,6.93-1.35,10.56-4.64ZM304.24,184c0-1.69,1.77-2.79,4.73-2.79a20.14,20.14,0,0,1,5.74.84,42,42,0,0,1,7,3v-8a25.34,25.34,0,0,0-12.67-3.55c-8.36,0-14.28,5.07-14.28,12.42,0,13.32,17.65,11.15,17.65,16.47,0,2.2-1.86,3.38-4.47,3.38-3.72,0-7.6-1.27-12.5-4.05v9c5.15,2.36,9.2,3.29,13.26,3.29,8.53,0,15.36-5.24,15.34-12.67,0-14.52-19.82-12.16-19.82-17.4M343.65,214c3.46,0,6.34-.84,11-3.29v-9c-3.46,2.11-5.41,2.87-7.35,2.87-3.21,0-4.39-2.53-4.39-6.16V182H354v-7.68H342.89V162.19h-2.11l-15.63,18.24V182h5.57v18.84c0,10,6.93,13.26,12.92,13.26m41.27-28,2.57-10.75a11.43,11.43,0,0,0-5.66-1.49c-4.65,0-8.77,2.38-10.73,10.31h-.17v-9.89H359.7v39h12.17v-6c0-10.73,2.87-22.3,9.29-22.3a7.58,7.58,0,0,1,3.77,1.09m17.92-22.68a5.4,5.4,0,0,0-5.43-5.43,5.46,5.46,0,0,0-5.5,5.43,5.52,5.52,0,0,0,5.5,5.5,5.46,5.46,0,0,0,5.43-5.5m16.17,0a5.4,5.4,0,0,0-5.43-5.43,5.46,5.46,0,0,0-5.5,5.43,5.52,5.52,0,0,0,5.5,5.5,5.46,5.46,0,0,0,5.43-5.5m-7.43,30.54c0,7.94-1.86,11.49-6.17,11.49s-6.25-3.55-6.25-11.49c0-7.52,2-11.57,6.25-11.57s6.17,4.06,6.17,11.57m12.84,0c0-12.67-9-20.44-19-20.44-9.54,0-18.92,7.35-18.92,20.44,0,11.66,7.94,20.35,18.92,20.35,11.15,0,19-8.53,19-20.35m64.07,19.34V187.36c0-9.88-6.84-13.85-12.58-13.85-5.32,0-9.21,2.62-11.91,7.94-1.86-5.07-5.74-7.94-10.9-7.94-4.56,0-8.36,2.11-11.57,6.76h-.17v-6H429.2v39h12.16V189.95c0-4.8,2.37-7.4,5.7-7.4s5.72,2.6,5.7,7.4v23.34h12.16V189.95c0-4.8,2.32-7.4,5.68-7.4s5.73,2.6,5.72,7.4v23.34Z" transform="translate(-38.69 -140.77)"/><path class="cls-3" d="M55.41,188.13H38.69a49.5,49.5,0,0,0,.62,6.27C42.8,215.78,60.06,232,80.82,232s38-16.24,41.51-37.62h0a49.91,49.91,0,0,0,.62-6.27H106.23s-3,0-4.49.93c-1.86,1.19-2.93,4.85-2.93,4.85l-.18.49-8.7,23.75H71.71L63,194.4l-.18-.5s-1.07-3.66-2.93-4.85c-1.51-1-4.49-.93-4.49-.93m35.95-29c0,6.3-4.72,11.4-10.54,11.4s-10.54-5.11-10.54-11.4S75,147.7,80.82,147.7s10.54,5.11,10.54,11.4m3.32,15.16h26.79c-4.91-19.31-21.25-33.5-40.65-33.5S45.07,155,40.17,174.27H67a10,10,0,0,1,4.25.81c1.95,1.17,3,5,3,5l5.26,14.36L80.82,198l1.31-3.57L87.38,180s1.19-3.55,3-4.74a10.77,10.77,0,0,1,4.25-1" transform="translate(-38.69 -140.77)"/></g></g></g></g></svg>