<svg xmlns="http://www.w3.org/2000/svg" viewBox="0 0 116.56 121.17"><defs><style>.cls-1{fill:#fff;}</style></defs><title>Asset 25lindstrom</title><g id="Layer_2" data-name="Layer 2"><g id="Layer_1-2" data-name="Layer 1"><path class="cls-1" d="M46.54,29.53,23.06,33.2V45.91L34.8,47.14V91.65h47V47.14L93.5,45.91V33.2L70,29.53c0,6.48-5.26,9-11.74,9S46.54,36,46.54,29.53Z"/><path class="cls-1" d="M116,52.34A58.32,58.32,0,0,0,78.42,5.9L86.9,2.2l-1-2.2L72.72,5.77l6.72,12.76,2.13-1.12L77,8.8a55.06,55.06,0,0,1-11,106.3l.45,3.17A58.22,58.22,0,0,0,116,52.34Z"/><path class="cls-1" d="M35,103.76l4.54,8.62a55.06,55.06,0,0,1,11-106.3L50,2.91a58.28,58.28,0,0,0-11.9,112.37L29.66,119l1,2.2,13.21-5.77-6.72-12.76Z"/></g></g></svg>