<svg xmlns="http://www.w3.org/2000/svg" viewBox="0 0 104.78 122.37"><defs><style>.cls-1{fill:#e00034;}</style></defs><title>Asset 39lindstrom</title><g id="Layer_2" data-name="Layer 2"><g id="Layer_1-2" data-name="Layer 1"><path class="cls-1" d="M52,101.85c37.37,0,36.64-40.3,28.58-40.3-11,0-14.65,11-24.18,11-11,0-13.19-13.92-34.44-13.92C17.59,58.62,14.65,101.85,52,101.85Z"/><path class="cls-1" d="M0,10.5v8.55H104.78V10.5A10.5,10.5,0,0,0,94.28,0H10.5A10.5,10.5,0,0,0,0,10.5Z"/><path class="cls-1" d="M10.5,122.37H94.28a10.5,10.5,0,0,0,10.5-10.5V24.18H0v87.69A10.5,10.5,0,0,0,10.5,122.37ZM52,33.71A36.64,36.64,0,1,1,15.39,70.34,36.64,36.64,0,0,1,52,33.71Z"/></g></g></svg>