<svg xmlns="http://www.w3.org/2000/svg" viewBox="0 0 138.74 126.69"><defs><style>.cls-1{fill:#b2b2b2;}</style></defs><title>Asset 44lindstrom</title><g id="Layer_2" data-name="Layer 2"><g id="Layer_1-2" data-name="Layer 1"><polygon class="cls-1" points="108.04 48.03 125.06 46.26 125.06 39.84 138.74 41.98 138.74 60.41 121.73 62.18 121.73 126.69 53.67 126.69 53.67 113 108.04 113 108.04 48.03"/><polygon class="cls-1" points="89.71 29.7 106.73 27.93 106.73 21.51 120.41 23.65 120.41 42.08 103.4 43.85 103.4 108.36 35.34 108.36 35.34 94.67 89.71 94.67 89.71 29.7"/><path class="cls-1" d="M34,0c0,9.4,7.62,13.12,17,13.12s17-3.72,17-13.12l34,5.32V23.75l-17,1.77V90H17V25.52L0,23.75V5.32Z"/></g></g></svg>