<svg xmlns="http://www.w3.org/2000/svg" viewBox="0 0 132.64 89.35"><defs><style>.cls-1{fill:#b2b2b2;}</style></defs><title>Asset 45lindstrom</title><g id="Layer_2" data-name="Layer 2"><g id="Layer_1-2" data-name="Layer 1"><path class="cls-1" d="M71.48,38.79a11.54,11.54,0,0,1,3.07-6.08l2.85-2.94A13.9,13.9,0,0,0,81.34,20V17.13a17.13,17.13,0,0,0-34.26,0v1.25h10V17.13a7.13,7.13,0,0,1,14.26,0v.72a11.41,11.41,0,0,1-3.28,8l-2.75,2.81a13.89,13.89,0,0,0-4,9.78v.21L0,79.81v9.54H132.64V79.81ZM18.81,79.23,66.32,47.37l47.51,31.86Z"/></g></g></svg>