<svg xmlns="http://www.w3.org/2000/svg" viewBox="0 0 169.85 144.37"><defs><style>.cls-1{fill:#b2b2b2;}</style></defs><title>Asset 43lindstrom</title><g id="Layer_2" data-name="Layer 2"><g id="Layer_1-2" data-name="Layer 1"><circle class="cls-1" cx="44.56" cy="70.4" r="22.28"/><path class="cls-1" d="M66.84,99.81H22.28A22.28,22.28,0,0,0,0,122.09v22.28H89.12V122.09A22.28,22.28,0,0,0,66.84,99.81Z"/><path class="cls-1" d="M136.43,0H116.9A33.42,33.42,0,0,0,83.48,33.42v37c5.65,0,10.81-3.5,14.74-9.27a33.26,33.26,0,0,0,18.68,5.7h19.53a33.42,33.42,0,0,0,0-66.84ZM103.09,24.51h45.45v4.11H103.09Zm32.08,17.82H103.09V38.22h32.08Zm22.28-6.86H103.09V31.36h54.36Z"/></g></g></svg>