<svg xmlns="http://www.w3.org/2000/svg" viewBox="0 0 90.46 98.13"><defs><style>.cls-1{fill:#fff;}</style></defs><title>Asset 24lindstrom</title><g id="Layer_2" data-name="Layer 2"><g id="Layer_1-2" data-name="Layer 1"><path class="cls-1" d="M75.54,50.71c-5.48,0-8.7-.64-10.8,5s-8.7,23.21-9.35,25-.81,2.1-2.58,2.1H37.65c-1.77,0-1.93-.32-2.58-2.1s-7.25-19.34-9.35-25-5.32-5-10.8-5H0C.8,77,20.74,98.13,45.23,98.13S89.66,77,90.46,50.71Z"/><path class="cls-1" d="M38.45,42.65c1,2.42,6.78,19.18,6.78,19.18S51,45.07,52,42.65s2.74-6.45,7.41-6.45h29.5C83.71,15.35,66.13,0,45.23,0S6.76,15.35,1.54,36.21H31C35.71,36.21,37.49,40.24,38.45,42.65Zm6.78-35c6.22,0,11.27,5.48,11.27,12.25s-5,12.25-11.27,12.25S34,26.7,34,19.93,39,7.68,45.23,7.68Z"/></g></g></svg>