<svg xmlns="http://www.w3.org/2000/svg" viewBox="0 0 111.3 101.63"><defs><style>.cls-1{fill:#fff;}</style></defs><title>Asset 27lindstrom</title><g id="Layer_2" data-name="Layer 2"><g id="Layer_1-2" data-name="Layer 1"><polygon class="cls-1" points="86.67 38.53 100.32 37.11 100.32 31.96 111.3 33.67 111.3 48.46 97.65 49.88 97.65 101.63 43.06 101.63 43.06 90.65 86.67 90.65 86.67 38.53"/><polygon class="cls-1" points="71.97 23.83 85.62 22.41 85.62 17.25 96.6 18.97 96.6 33.76 82.95 35.18 82.95 86.93 28.35 86.93 28.35 75.95 71.97 75.95 71.97 23.83"/><path class="cls-1" d="M27.3,0c0,7.54,6.11,10.52,13.65,10.52S54.6,7.54,54.6,0l27.3,4.27V19.05L68.24,20.47V72.23H13.65V20.47L0,19.05V4.27Z"/></g></g></svg>