<svg xmlns="http://www.w3.org/2000/svg" viewBox="0 0 121.22 121.22"><defs><style>.cls-1{fill:#fff;}</style></defs><title>Asset 34lindstrom</title><g id="Layer_2" data-name="Layer 2"><g id="Layer_1-2" data-name="Layer 1"><path class="cls-1" d="M121.22,60.61a60.71,60.71,0,0,0-1.95-15.3l-19.55-1,13.06-14.53A60.91,60.91,0,0,0,91.48,8.44L77,21.5l-1-19.55a61,61,0,0,0-30.1-.12l-1,19.68L30,8.27A60.91,60.91,0,0,0,8.64,29.41L22,44.27l-20,1.07a61,61,0,0,0-.12,30.05L22,76.46,8.46,91.51A60.8,60.8,0,0,0,15.39,101l4.87,4.87a60.8,60.8,0,0,0,9.45,6.93L44.76,99.23l1.08,20.17a61,61,0,0,0,30.05-.12l1.07-20,14.86,13.35A60.91,60.91,0,0,0,113,91.19L99.72,76.46l19.68-1A60.73,60.73,0,0,0,121.22,60.61ZM61.14,88.92A28.84,28.84,0,1,1,90,60.08,28.84,28.84,0,0,1,61.14,88.92Z"/><circle class="cls-1" cx="60.61" cy="60.61" r="19.86"/></g></g></svg>