<svg xmlns="http://www.w3.org/2000/svg" viewBox="0 0 106.41 71.68"><defs><style>.cls-1{fill:#e00034;}</style></defs><title>Asset 23lindstrom</title><g id="Layer_2" data-name="Layer 2"><g id="Layer_1-2" data-name="Layer 1"><path class="cls-1" d="M57.34,31.12a9.26,9.26,0,0,1,2.46-4.88l2.29-2.36a11.15,11.15,0,0,0,3.16-7.8V13.74a13.74,13.74,0,0,0-27.48,0v1h8v-1a5.72,5.72,0,1,1,11.44,0v.58a9.16,9.16,0,0,1-2.63,6.44L52.4,23a11.14,11.14,0,0,0-3.2,7.84V31L0,64v7.65H106.41V64ZM15.09,63.56,53.2,38,91.31,63.56Z"/></g></g></svg>